<svg xmlns="http://www.w3.org/2000/svg" viewBox="0 0 512 512">
  <defs>
    <radialGradient id="bg" cx="30%" cy="25%" r="90%">
      <stop offset="0%" stop-color="#141a33"/>
      <stop offset="100%" stop-color="#05060e"/>
    </radialGradient>
    <radialGradient id="planet" cx="38%" cy="34%" r="80%">
      <stop offset="0%" stop-color="#8fd7ff"/>
      <stop offset="55%" stop-color="#37a8e0"/>
      <stop offset="100%" stop-color="#1c3f8a"/>
    </radialGradient>
    <linearGradient id="ring" x1="0" y1="0" x2="1" y2="0">
      <stop offset="0%" stop-color="#a56bff"/>
      <stop offset="100%" stop-color="#37e0ff"/>
    </linearGradient>
  </defs>
  <rect width="512" height="512" rx="96" fill="url(#bg)"/>
  <circle cx="120" cy="96" r="4" fill="#cfe4ff" opacity="0.9"/>
  <circle cx="420" cy="140" r="3" fill="#cfe4ff" opacity="0.7"/>
  <circle cx="380" cy="70" r="2.5" fill="#cfe4ff" opacity="0.6"/>
  <circle cx="80" cy="300" r="2.5" fill="#cfe4ff" opacity="0.6"/>
  <circle cx="440" cy="380" r="3.5" fill="#cfe4ff" opacity="0.8"/>
  <ellipse cx="256" cy="276" rx="196" ry="58" fill="none" stroke="url(#ring)" stroke-width="18" opacity="0.9"
           transform="rotate(-18 256 276)"/>
  <circle cx="256" cy="266" r="120" fill="url(#planet)"/>
  <ellipse cx="216" cy="226" rx="34" ry="22" fill="#ffffff" opacity="0.25"/>
  <ellipse cx="292" cy="300" rx="26" ry="16" fill="#0a1a3a" opacity="0.35"/>
  <ellipse cx="256" cy="276" rx="196" ry="58" fill="none" stroke="url(#ring)" stroke-width="18" opacity="0.95"
           transform="rotate(-18 256 276)" stroke-dasharray="0 340 400 1000"/>
  <circle cx="404" cy="180" r="10" fill="#37e0ff"/>
  <path d="M404 180 L360 232" stroke="#37e0ff" stroke-width="5" opacity="0.8"/>
</svg>
